<?xml version="1.0" encoding="UTF-8"?><svg id="Layer_2" xmlns="http://www.w3.org/2000/svg" viewBox="0 0 15.94 22.02"><defs><style>.cls-1 {fill:#f4ede5;}@media (prefers-color-scheme: light) {.cls-1 {fill:#5a637a;}}</style></defs><g id="Layer_1-2"><path class="cls-1" d="m15.92,19c0-.35-.3-.83-.39-.96-.02-.03-.03-.04-.03-.04-.23-.32-.51-.5-.63-.57-.35-.2-.78-.32-1.19-.32-.53,0-.99.19-1.28.54-.3.35-.51.94-.29,1.48.23.56.86.89,1.7.89.15,0,.28-.01.4-.03.26-.04.53-.13.78-.25-.09.29-.25.51-.29.57-.52.7-1.54.84-2.31.84-.68,0-1.26-.11-1.36-.13-1.22-.26-2.1-.87-2.9-1.48-.24-.18-.45-.36-.63-.53.83-1.05,1.58-2.26,2.12-3.44,1.25-2.75,1.66-5.63,1.11-7.7-.19-.69-.55-1.2-1.03-1.46-.25-.13-.52-.2-.81-.2-.21,0-.44.04-.67.12-1.51.51-3.03,1.99-4.63,4.53-1.26,2.01-1.88,4.16-2.29,5.58-.06.23-.13.46-.19.66-.3-1.59-.33-5.45,0-7.17.4-2.1,1.81-6.16,4.58-8.12,1.1-.78,1.89-.94,2.37-.94.28,0,.52.05.69.16-.1.08-.2.17-.29.27-.12.13-.17.32-.13.49.05.17.16.3.32.35.06.02.12.03.18.03.11,0,.23-.03.37-.11-.31.31-.56.62-.75.9-.07.09-.09.21-.07.32s.08.21.18.28c.07.05.16.08.25.08.14,0,.27-.07.35-.18.54-.77,1.46-1.73,2.81-2.01.21-.05.42-.07.64-.08.21-.01.39-.17.41-.39.03-.21-.12-.41-.33-.46-.07-.02-.72-.17-1.53-.17-.6,0-1.14.08-1.6.24-.31-.37-.87-.59-1.51-.59-.86,0-1.85.38-2.86,1.1-1.36.96-2.53,2.43-3.47,4.37-.98,1.99-1.37,3.79-1.46,4.29-.37,1.9-.42,7.34.32,8.43.16.24.35.31.56.31.01,0,.04-.01.04-.01-.19.41-.28.88-.18,1.38.19.98,1.1,1.71,1.86,1.9.17.04.34.07.52.07,1.23,0,2.48-1.03,3.3-1.9.09-.08.17-.17.26-.27.19.18.41.37.67.56.87.67,1.84,1.34,3.24,1.64.23.04.83.15,1.54.15,1.39,0,2.43-.41,3.01-1.2.11-.15.61-.88.53-1.76-.01-.02-.01-.04-.01-.06Zm-1.84.14c-.08.01-.17.02-.26.02-.38,0-.81-.11-.91-.36-.07-.18.02-.44.14-.59.13-.15.36-.23.63-.23s.53.07.76.2c.08.05.35.23.51.56-.27.21-.58.35-.87.4Zm-8.02.2c-1.01,1.05-1.96,1.63-2.69,1.63-.1,0-.2-.01-.3-.04-.49-.12-1.1-.63-1.22-1.23-.12-.61.25-1.2.61-1.52.35-.31.82-.47,1.4-.47.31,0,.59.06.72.09.7.16,1.05.54,1.61,1.13l.13.13c-.09.1-.17.19-.26.28Zm.82-.95l-.08-.08c-.57-.61-1.07-1.13-2.02-1.36-.17-.04-.51-.1-.92-.1-.79,0-1.47.24-1.98.68.08-.24.16-.51.25-.85.4-1.37,1-3.45,2.2-5.36,1.46-2.33,2.87-3.73,4.17-4.17.14-.05.27-.07.39-.07.15,0,.28.03.4.09.27.15.48.47.6.92.51,1.89.11,4.55-1.06,7.13-.5,1.08-1.18,2.2-1.95,3.17Z"/></g></svg>