<svg xmlns="http://www.w3.org/2000/svg" xmlns:xlink="http://www.w3.org/1999/xlink" viewBox="0 0 165.85 165.84"><defs><style>.cls-1{fill:url(#linear-gradient);}.cls-2{fill:url(#linear-gradient-2);}.cls-3{fill:url(#linear-gradient-3);}.cls-4{fill:url(#linear-gradient-4);}.cls-5{fill:url(#linear-gradient-5);}.cls-6{fill:url(#linear-gradient-6);}.cls-7{fill:#352b59;}.cls-14,.cls-8{fill:none;}.cls-8{stroke:#352b59;stroke-linecap:round;stroke-linejoin:round;stroke-width:0.75px;}.cls-9{fill:#8c8dc1;}.cls-10{fill:url(#linear-gradient-7);}.cls-11{fill:url(#linear-gradient-8);}.cls-12{fill:url(#linear-gradient-9);}.cls-13{fill:url(#linear-gradient-10);}</style><linearGradient id="linear-gradient" x1="82.8" y1="135.83" x2="82.8" y2="165.84" gradientUnits="userSpaceOnUse"><stop offset="0" stop-color="#382f59"/><stop offset="0.68" stop-color="#4f5a8d"/><stop offset="1" stop-color="#776698"/></linearGradient><linearGradient id="linear-gradient-2" x1="82.93" y1="140.38" x2="82.93" y2="105.9" gradientUnits="userSpaceOnUse"><stop offset="0" stop-color="#5f6192"/><stop offset="0.75" stop-color="#4e5a8e"/></linearGradient><linearGradient id="linear-gradient-3" x1="33.04" y1="110.81" x2="33.04" y2="84.4" gradientUnits="userSpaceOnUse"><stop offset="0" stop-color="#7272a8"/><stop offset="1" stop-color="#9194a4"/></linearGradient><linearGradient id="linear-gradient-4" x1="132.68" y1="110.81" x2="132.68" y2="84.4" xlink:href="#linear-gradient-3"/><linearGradient id="linear-gradient-5" x1="82.93" y1="131.15" x2="82.93" y2="42.68" xlink:href="#linear-gradient-3"/><linearGradient id="linear-gradient-6" x1="82.93" y1="11.31" x2="82.93" y2="135.83" gradientUnits="userSpaceOnUse"><stop offset="0" stop-color="#a6a6ad"/><stop offset="0.75" stop-color="#4e5a8e"/></linearGradient><linearGradient id="linear-gradient-7" x1="63.67" y1="90.31" x2="63.67" y2="107.49" gradientUnits="userSpaceOnUse"><stop offset="0" stop-color="#382f59"/><stop offset="0.29" stop-color="#474b7b"/><stop offset="0.48" stop-color="#4f5a8d"/><stop offset="0.66" stop-color="#676194"/><stop offset="0.86" stop-color="#79679a"/><stop offset="1" stop-color="#80699c"/></linearGradient><linearGradient id="linear-gradient-8" x1="60.8" y1="105.52" x2="60.8" y2="82.13" xlink:href="#linear-gradient-2"/><linearGradient id="linear-gradient-9" x1="105.06" y1="105.52" x2="105.06" y2="82.13" xlink:href="#linear-gradient-2"/><linearGradient id="linear-gradient-10" x1="102.18" y1="90.31" x2="102.18" y2="107.49" xlink:href="#linear-gradient-7"/></defs><g id="Layer_2" data-name="Layer 2"><g id="Image"><path class="cls-1" d="M121.15,165.84H44.45C55,161,60.59,155.31,63.54,151.1c.41-.67.94-1.57,1.49-2.61A37.79,37.79,0,0,0,66.64,145a19.91,19.91,0,0,0,1.52-7.13,1.24,1.24,0,0,1,1-1.24l3.48-.77H93.1l3.45.76a1.24,1.24,0,0,1,1,1.24c-.06,5.59,3.72,11.9,5,13.93v0C105.64,155.92,111.21,161.25,121.15,165.84Z"/><path class="cls-2" d="M72.75,125.71v13.53a46,46,0,0,0,20.35,0V125.71Z"/><path class="cls-3" d="M41.65,86.92A34.38,34.38,0,0,0,26.5,84.5a2.25,2.25,0,0,0-2,2.72c1.18,5.33,5,18,15.62,23.59Z"/><path class="cls-4" d="M124.07,86.92a34.44,34.44,0,0,1,15.16-2.42,2.24,2.24,0,0,1,2,2.72c-1.18,5.33-5,18-15.62,23.59Z"/><path class="cls-5" d="M127.16,86.92c0,.19,0,.38,0,.57v0a44.23,44.23,0,0,1-88.45,0v0c0-.19,0-.38,0-.57a44.24,44.24,0,1,1,88.47,0Z"/><path class="cls-6" d="M156.48,44.23a26.88,26.88,0,0,1-3,7.75,20.41,20.41,0,0,1-15.72,9.34A15.73,15.73,0,0,1,139.24,64,16.07,16.07,0,0,1,127.35,85.9c-.07.51-.13,1-.2,1.59v0c-.23,2-.46,4.35-.62,6.84-.78,12.16,0,28.48,8.28,35.75a1.34,1.34,0,0,1-.27,2.2c-4.58,2.38-17.09,7.43-27.63-1.83a1.34,1.34,0,0,1-.07-1.94,56.87,56.87,0,0,0,8.45-11.47A50.21,50.21,0,0,0,121.69,86c-.06-.51-.13-1-.22-1.55C104.61,86.87,99,79.67,98.89,79.47h0a36.32,36.32,0,0,1-15.95,2.21C67.71,80.17,58.87,68,56,63.24a16,16,0,0,0-1-1.85v0s-1.2,4.05-3.2,8.82a60.71,60.71,0,0,1-4.28,8.48,28,28,0,0,1-2.22,3.08L43,80.51a.22.22,0,0,0-.27.34l2,2c-.2,1-.36,2.08-.49,3.1a50.21,50.21,0,0,0,6.4,31.11A56.87,56.87,0,0,0,59,128.53a1.34,1.34,0,0,1-.07,1.94c-10.54,9.26-23,4.21-27.63,1.83a1.34,1.34,0,0,1-.27-2.2c8.31-7.27,9.06-23.59,8.28-35.75-.16-2.49-.39-4.81-.62-6.84v0c-.07-.55-.13-1.08-.2-1.59A16.07,16.07,0,0,1,26.61,64a15.73,15.73,0,0,1,1.44-2.72A20.41,20.41,0,0,1,12.33,52,27.25,27.25,0,0,1,8.76,38.5,27.19,27.19,0,0,1,35.68,11.32H36a27.17,27.17,0,0,1,23.5,13.51c0,.05,0,.09,0,.14l0,0a35.77,35.77,0,0,1,23.34-8.62H83a35.77,35.77,0,0,1,23.34,8.62l0,0c0-.05,0-.09,0-.14a27.17,27.17,0,0,1,23.5-13.51h.27A27.19,27.19,0,0,1,157.09,38.5Z"/><path class="cls-7" d="M82.93,114.49c2,.4,2,1.24,0,1.64-2-.4-2-1.24,0-1.64Z"/><path class="cls-8" d="M78.14,119.86s3.19,2,4.79,2,4.79-2,4.79-2"/><path class="cls-9" d="M74.15,105.9a2.72,2.72,0,0,1-1.07,2.28,9.8,9.8,0,0,1-1.28.8h0A29.55,29.55,0,0,1,62,111.07,16.4,16.4,0,0,1,56,109.83c-2.57-1.1-4.29-4.2-5.45-7.77a61.8,61.8,0,0,1-2.35-15.21l.16,0a2,2,0,0,0,.48.09,23.11,23.11,0,0,1,3.39.4,24.59,24.59,0,0,1,7.13,2.62l.66.38a36.5,36.5,0,0,1,10.3,9.55c.36.48.69,1,1,1.4A41.88,41.88,0,0,1,74.15,105.9Z"/><path class="cls-7" d="M74.15,105.89h0a41.88,41.88,0,0,0-2.82-4.64c-.31-.45-.64-.92-1-1.4-.49-.65-1-1.32-1.59-2s-1.36-1.55-2.12-2.33A33,33,0,0,0,60,90.31l-.66-.38a24.59,24.59,0,0,0-7.13-2.62,23.11,23.11,0,0,0-3.39-.4,2,2,0,0,1-.48-.09,1.52,1.52,0,0,1-.61-.39l-3.53-3.58-2-2a.22.22,0,0,1,.26-.34l2.28,1.24,2.67,1.45.22.12a8.28,8.28,0,0,0,3.7,1,19.18,19.18,0,0,1,4.91.84l.18.06a22,22,0,0,1,7.31,4,27.37,27.37,0,0,1,3,2.93,32.76,32.76,0,0,1,3.58,5,46.05,46.05,0,0,1,3.72,8.26.19.19,0,0,1,0,.07v0l0,.32Z"/><path class="cls-7" d="M71.8,109h0A29.55,29.55,0,0,1,62,111.07c-9.62.1-11.73-7.48-12.19-10.89a.1.1,0,0,1,.19,0,14,14,0,0,0,.61,1.92C55.1,113.73,70.79,109.28,71.8,109Z"/><path class="cls-10" d="M71.33,101.26c-1,3.62-4,6.23-7.44,6.23-4.35,0-7.88-4.11-7.88-9.18a9.52,9.52,0,0,1,4-8,36.5,36.5,0,0,1,10.3,9.55C70.69,100.34,71,100.81,71.33,101.26Z"/><path class="cls-11" d="M73.82,103.71a48.25,48.25,0,0,0-3-8.78,0,0,0,0,0,0,0l0-.09h0C62.25,76.92,47.48,83.2,47.48,83.2l.22.12a8.28,8.28,0,0,0,3.7,1,19.18,19.18,0,0,1,4.91.84l.18.06a22,22,0,0,1,7.31,4,27.37,27.37,0,0,1,3,2.93,32.76,32.76,0,0,1,3.58,5,46.05,46.05,0,0,1,3.72,8.26.19.19,0,0,1,0,.07v0A10.42,10.42,0,0,0,73.82,103.71Z"/><ellipse class="cls-9" cx="67.12" cy="97.45" rx="1.66" ry="2.01"/><path class="cls-7" d="M91.7,105.89h0a41.88,41.88,0,0,1,2.82-4.64c.31-.45.64-.92,1-1.4.49-.65,1-1.32,1.59-2s1.36-1.55,2.13-2.33a32.62,32.62,0,0,1,6.58-5.22l.66-.38a24.59,24.59,0,0,1,7.13-2.62,23.11,23.11,0,0,1,3.39-.4,2,2,0,0,0,.48-.09,1.52,1.52,0,0,0,.61-.39l3.54-3.58,2-2a.22.22,0,0,0-.26-.34L121,81.75l-2.66,1.45-.23.12a8.28,8.28,0,0,1-3.7,1,19.18,19.18,0,0,0-4.91.84l-.18.06a22,22,0,0,0-7.31,4,27.37,27.37,0,0,0-3,2.93,32.76,32.76,0,0,0-3.58,5,46.05,46.05,0,0,0-3.72,8.26.17.17,0,0,0,0,.07v0l0,.32Z"/><path class="cls-12" d="M92,103.71a48.25,48.25,0,0,1,3-8.78,0,0,0,0,1,0,0l0-.09h0c8.47-17.9,23.25-11.62,23.25-11.62l-.23.12a8.28,8.28,0,0,1-3.7,1,19.18,19.18,0,0,0-4.91.84l-.18.06a22,22,0,0,0-7.31,4,27.37,27.37,0,0,0-3,2.93,32.76,32.76,0,0,0-3.58,5,46.05,46.05,0,0,0-3.72,8.26.17.17,0,0,0,0,.07v0A10.42,10.42,0,0,1,92,103.71Z"/><path class="cls-9" d="M91.7,105.9a2.72,2.72,0,0,0,1.07,2.28,9.8,9.8,0,0,0,1.28.8h0a29.55,29.55,0,0,0,9.84,2.08,16.4,16.4,0,0,0,5.94-1.24c2.57-1.1,4.29-4.2,5.45-7.77a61.8,61.8,0,0,0,2.35-15.21l-.16,0a2,2,0,0,1-.48.09,23.11,23.11,0,0,0-3.39.4,24.59,24.59,0,0,0-7.13,2.62l-.66.38a36.5,36.5,0,0,0-10.3,9.55c-.36.48-.69,1-1,1.4A41.88,41.88,0,0,0,91.7,105.9Z"/><path class="cls-7" d="M94.05,109h0a29.55,29.55,0,0,0,9.84,2.08c9.62.1,11.73-7.48,12.19-10.89a.1.1,0,0,0-.19,0,14,14,0,0,1-.61,1.92C110.75,113.73,95.06,109.28,94.05,109Z"/><path class="cls-13" d="M94.52,101.26c1,3.62,4,6.23,7.44,6.23,4.35,0,7.88-4.11,7.88-9.18a9.52,9.52,0,0,0-4-8,36.5,36.5,0,0,0-10.3,9.55C95.16,100.34,94.83,100.81,94.52,101.26Z"/><ellipse class="cls-9" cx="105.79" cy="97.45" rx="1.66" ry="2.01"/><path class="cls-7" d="M94.2,73.72a.25.25,0,0,0,.11.49,82.8,82.8,0,0,1,27,.58S107,70.15,94.2,73.72Z"/><path class="cls-7" d="M71.65,73.72a.25.25,0,0,1-.1.49,82.86,82.86,0,0,0-27,.58S58.84,70.15,71.65,73.72Z"/><rect class="cls-14" width="165.85" height="165.84"/></g></g></svg>